<?xml version="1.0" encoding="UTF-8"?>
<svg width="24px" height="24px" viewBox="0 0 24 24" version="1.1" xmlns="http://www.w3.org/2000/svg">
    <g stroke="none" stroke-width="1" fill="none" fill-rule="evenodd">
        <path d="M18.4647448,12.8201337 C18.4371117,9.79799196 20.9588095,8.32799544 21.0694325,8.26399528 C19.6994325,6.23999784 17.5341117,5.94399832 16.7694325,5.91999832 C14.9341117,5.73599856 13.1541117,6.98799688 12.2141117,6.98799688 C11.2547448,6.98799688 9.79414477,5.94399832 8.24614477,5.97599832 C6.24614477,6.00799832 4.40614477,7.13599736 3.40614477,8.87999544 C1.32614477,12.4401337 2.86614477,17.6961313 4.86614477,20.6561289 C5.86614477,22.1081254 7.06614477,23.7441234 8.66614477,23.6881234 C10.2261448,23.6241234 10.8261448,22.7201242 12.7061448,22.7201242 C14.5661448,22.7201242 15.1261448,23.6881234 16.7694325,23.6481234 C18.4647448,23.6161234 19.5047448,22.1561254 20.4647448,20.6881289 C21.6047448,19.0001308 22.0694325,17.3601328 22.0894325,17.2801328 C22.0494325,17.2681328 18.4967448,15.9281341 18.4647448,12.8201337 Z M15.3341117,3.84799976 C16.1541117,2.84799976 16.7141117,1.47199976 16.5541117,0.0799999982 C15.3741117,0.127999998 13.9141117,0.911999998 13.0541117,1.88799976 C12.2941117,2.75199976 11.6141117,4.16799976 11.8141117,5.51999832 C13.1341117,5.61599832 14.4741117,4.83199976 15.3341117,3.84799976 Z" fill="#000000" fill-rule="nonzero"/>
    </g>
</svg> 