<?xml version="1.0" encoding="UTF-8"?>
<svg width="24px" height="24px" viewBox="0 0 24 24" version="1.1" xmlns="http://www.w3.org/2000/svg">
    <g stroke="none" stroke-width="1" fill="none" fill-rule="evenodd">
        <path d="M24,12 C24,5.37258267 18.6274173,0 12,0 C5.37258267,0 0,5.37258267 0,12 C0,17.9895035 4.38825421,22.954223 10.125,23.8542169 L10.125,15.46875 L7.078125,15.46875 L7.078125,12 L10.125,12 L10.125,9.35625 C10.125,6.34875 11.9166667,4.6875 14.6575,4.6875 C15.9705208,4.6875 17.34375,4.921875 17.34375,4.921875 L17.34375,7.875 L15.8306208,7.875 C14.3398958,7.875 13.875,8.80001651 13.875,9.75V12 L17.203125,12 L16.6710938,15.46875 L13.875,15.46875 L13.875,23.8542169 C19.6117458,22.954223 24,17.9895035 24,12" fill="#1877F2" fill-rule="nonzero"/>
        <path d="M16.6710938,15.46875 L17.203125,12 L13.875,12 L13.875,9.75 C13.875,8.80001651 14.3398958,7.875 15.8306208,7.875 L17.34375,7.875 L17.34375,4.921875 C17.34375,4.921875 15.9705208,4.6875 14.6575,4.6875 C11.9166667,4.6875 10.125,6.34875 10.125,9.35625 L10.125,12 L7.078125,12 L7.078125,15.46875 L10.125,15.46875 L10.125,23.8542169 C10.7399134,23.9501337 11.3652897,24 12,24 C12.6347103,24 13.2600866,23.9501337 13.875,23.8542169 L13.875,15.46875 L16.6710938,15.46875" fill="#FFFFFF" fill-rule="nonzero"/>
    </g>
</svg> 